<?xml version="1.0" encoding="utf-8"?>
<!-- Generator: Adobe Illustrator 27.8.1, SVG Export Plug-In . SVG Version: 6.00 Build 0)  -->
<svg version="1.1" id="Layer_1" xmlns="http://www.w3.org/2000/svg" xmlns:xlink="http://www.w3.org/1999/xlink" x="0px" y="0px"
	 viewBox="0 0 750 500" style="enable-background:new 0 0 750 500;" xml:space="preserve">
<style type="text/css">
	.st0{fill:#263238;}
	.st1{opacity:0.5;fill:#FFFFFF;enable-background:new    ;}
	.st2{fill:#FFFFFF;}
	.st3{fill:#92E3A9;}
	.st4{opacity:0.8;}
	.st5{opacity:0.7;}
	.st6{fill:#FF725E;stroke:#263238;stroke-miterlimit:10;}
	.st7{opacity:0.23;enable-background:new    ;}
	.st8{fill:#FF725E;}
	.st9{opacity:0.34;}
	.st10{opacity:0.45;}
	.st11{opacity:0.28;}
	.st12{fill:#FFFFFF;stroke:#263238;stroke-miterlimit:10;}
	.st13{fill:none;stroke:#263238;stroke-miterlimit:10;}
	.st14{opacity:0.4;}
	.st15{opacity:0.21;}
	.st16{fill:#FF725E;stroke:#263238;stroke-width:1;stroke-miterlimit:10;}
	.st17{opacity:0.23;fill:#FFFFFF;enable-background:new    ;}
	.st18{opacity:0.42;fill:#FFFFFF;enable-background:new    ;}
	.st19{opacity:0.11;enable-background:new    ;}
</style>
<g id="freepik--background-simple--inject-13">
	<path class="st0" d="M729.4,167.6c-6.7-21.8-16.5-42-29.1-59.3c-38.6-52.6-125.2-59.4-183.8-57.5c-32.2,1-80.5,10.7-153.4,15.6
		C260.6,73.1,143.4,76,63.9,150.7c-24.2,22.8-43.1,51.5-51.9,83.6c-9.1,33.4-7.1,68.8,5.6,101C59.5,440,188.5,451.4,285.5,441.5
		c66.8-6.8,132.8-21.8,200.1-23c29.6-0.5,59.2,1.6,88.7-0.1c56.2-3.2,107.7-24.9,137.8-74.3c25.7-42.3,32.3-94.8,24.9-143.2
		C735.3,189.6,732.8,178.5,729.4,167.6z"/>
	<path class="st1" d="M729.4,167.6c-6.7-21.8-16.5-42-29.1-59.3c-38.6-52.6-125.2-59.4-183.8-57.5c-32.2,1-80.5,10.7-153.4,15.6
		C260.6,73.1,143.4,76,63.9,150.7c-24.2,22.8-43.1,51.5-51.9,83.6c-9.1,33.4-7.1,68.8,5.6,101C59.5,440,188.5,451.4,285.5,441.5
		c66.8-6.8,132.8-21.8,200.1-23c29.6-0.5,59.2,1.6,88.7-0.1c56.2-3.2,107.7-24.9,137.8-74.3c25.7-42.3,32.3-94.8,24.9-143.2
		C735.3,189.6,732.8,178.5,729.4,167.6z"/>
	<path class="st0" d="M696.8,172.3C676.4,94.7,610.5,56.2,501.9,59.1c-29.1,0.8-72.8,9.8-138.9,14.1
		c-169.1,10.9-231.2,35.1-275.5,84.4s-66.6,94-27.8,190S251.5,448,353.7,424.6s214.7,1.2,271.4-27.8s96.7-115,72.9-219
		C697.7,176,697.2,174.1,696.8,172.3z"/>
	<path class="st2" d="M622.2,435.3v-5V435.3z"/>
</g>
<g id="freepik--Stars--inject-13">
	<path class="st3" d="M151.9,117.8c-7.5-0.7-8-1.3-8.7-8.8c-0.7,7.5-1.3,8-8.8,8.7c7.5,0.7,8,1.3,8.7,8.8
		C143.9,119,144.4,118.5,151.9,117.8z"/>
	<path class="st3" d="M651.5,213.6c-7.5-0.7-8-1.3-8.7-8.8c-0.7,7.5-1.3,8-8.8,8.7c7.5,0.7,8,1.3,8.7,8.8
		C643.5,214.9,644,214.3,651.5,213.6z"/>
	
		<ellipse transform="matrix(0.8906 -0.4548 0.4548 0.8906 -4.6725 248.2396)" class="st3" cx="513.7" cy="133.8" rx="8.7" ry="8.7"/>
	<path class="st3" d="M560.9,344c-7.5-0.7-8-1.3-8.7-8.8c-0.7,7.5-1.3,8-8.8,8.7c7.5,0.7,8,1.3,8.7,8.8
		C552.9,345.3,553.4,344.7,560.9,344z"/>
	<path class="st3" d="M106.2,339.9c-7.5-0.7-8-1.3-8.7-8.8c-0.7,7.5-1.3,8-8.8,8.7c7.5,0.7,8,1.3,8.7,8.8
		C98.1,341.1,98.7,340.5,106.2,339.9z"/>
	<path class="st3" d="M188,146.7c-5-0.5-5.4-0.9-5.9-5.9c-0.5,5.1-0.9,5.4-5.9,5.9c5.1,0.5,5.4,0.9,5.9,5.9
		C182.6,147.5,182.9,147.1,188,146.7z"/>
	<path class="st3" d="M112.2,168.6c-5-0.5-5.4-0.9-5.9-5.9c-0.5,5.1-0.9,5.4-5.9,5.9c5,0.5,5.4,0.9,5.9,5.9
		C106.8,169.4,107.2,169,112.2,168.6z"/>
	<path class="st3" d="M261.6,173.7c-5-0.5-5.4-0.9-5.9-5.9c-0.5,5-0.9,5.4-5.9,5.9c5.1,0.5,5.4,0.9,5.9,5.9
		C256.1,174.5,256.5,174.1,261.6,173.7z"/>
	<path class="st3" d="M210.6,307.6c-5-0.5-5.4-0.9-5.9-5.9c-0.5,5-0.9,5.4-5.9,5.9c5.1,0.5,5.4,0.9,5.9,5.9
		C205.2,308.4,205.6,308,210.6,307.6z"/>
	<path class="st3" d="M447.9,90.2c-5-0.5-5.4-0.9-5.9-5.9c-0.5,5.1-0.9,5.4-5.9,5.9c5,0.5,5.4,0.9,5.9,5.9
		C442.5,91.1,442.9,90.7,447.9,90.2z"/>
	<path class="st3" d="M376.7,332.6c-5-0.5-5.4-0.9-5.9-5.9c-0.5,5-0.9,5.4-5.9,5.9c5,0.5,5.4,0.9,5.9,5.9
		C371.3,333.5,371.7,333.1,376.7,332.6z"/>
	<circle class="st3" cx="681.6" cy="293.5" r="5.9"/>
	<ellipse transform="matrix(0.7071 -0.7071 0.7071 0.7071 3.8439 463.6034)" class="st3" cx="561.5" cy="227.2" rx="5.9" ry="5.9"/>
	<path class="st3" d="M154.4,239.9c-5.1-0.5-5.4-0.9-5.9-5.9c-0.5,5.1-0.9,5.4-5.9,5.9c5,0.5,5.4,0.9,5.9,5.9
		C149,240.7,149.4,240.3,154.4,239.9z"/>
	<path class="st3" d="M357.1,116.1c-5-0.5-5.4-0.9-5.9-5.9c-0.5,5-0.9,5.4-5.9,5.9c5,0.5,5.4,0.9,5.9,5.9
		C351.7,116.9,352,116.5,357.1,116.1z"/>
	<path class="st3" d="M279.1,81.3c-5-0.5-5.4-0.9-5.9-5.9c-0.5,5-0.9,5.4-5.9,5.9c5,0.5,5.4,0.9,5.9,5.9
		C273.6,82.1,274,81.8,279.1,81.3z"/>
	<path class="st3" d="M82.8,259.1c-5-0.5-5.4-0.9-5.9-5.9c-0.5,5-0.9,5.4-5.9,5.9c5,0.5,5.4,0.9,5.9,5.9
		C77.4,260,77.8,259.6,82.8,259.1z"/>
	<path class="st3" d="M279.7,394c-5-0.5-5.4-0.9-5.9-5.9c-0.5,5-0.9,5.4-5.9,5.9c5,0.5,5.4,0.9,5.9,5.9
		C274.2,394.8,274.6,394.4,279.7,394z"/>
	<path class="st3" d="M613,396.7c-5-0.5-5.4-0.9-5.9-5.9c-0.5,5-0.9,5.4-5.9,5.9c5,0.5,5.4,0.9,5.9,5.9
		C607.6,397.5,608,397.1,613,396.7z"/>
	<path class="st3" d="M644.4,105.8c-5-0.5-5.4-0.9-5.9-5.9c-0.5,5-0.9,5.4-5.9,5.9c5,0.5,5.4,0.9,5.9,5.9
		C639,106.6,639.3,106.2,644.4,105.8z"/>
	<g class="st4">
		<path class="st2" d="M151.9,117.8c-7.5-0.7-8-1.3-8.7-8.8c-0.7,7.5-1.3,8-8.8,8.7c7.5,0.7,8,1.3,8.7,8.8
			C143.9,119,144.4,118.5,151.9,117.8z"/>
		<path class="st2" d="M651.5,213.6c-7.5-0.7-8-1.3-8.7-8.8c-0.7,7.5-1.3,8-8.8,8.7c7.5,0.7,8,1.3,8.7,8.8
			C643.5,214.9,644,214.3,651.5,213.6z"/>
		
			<ellipse transform="matrix(0.8906 -0.4548 0.4548 0.8906 -4.6725 248.2396)" class="st2" cx="513.7" cy="133.8" rx="8.7" ry="8.7"/>
		<path class="st2" d="M560.9,344c-7.5-0.7-8-1.3-8.7-8.8c-0.7,7.5-1.3,8-8.8,8.7c7.5,0.7,8,1.3,8.7,8.8
			C552.9,345.3,553.4,344.7,560.9,344z"/>
		<path class="st2" d="M106.2,339.9c-7.5-0.7-8-1.3-8.7-8.8c-0.7,7.5-1.3,8-8.8,8.7c7.5,0.7,8,1.3,8.7,8.8
			C98.1,341.1,98.7,340.5,106.2,339.9z"/>
		<path class="st2" d="M188,146.7c-5-0.5-5.4-0.9-5.9-5.9c-0.5,5.1-0.9,5.4-5.9,5.9c5.1,0.5,5.4,0.9,5.9,5.9
			C182.6,147.5,182.9,147.1,188,146.7z"/>
		<path class="st2" d="M112.2,168.6c-5-0.5-5.4-0.9-5.9-5.9c-0.5,5.1-0.9,5.4-5.9,5.9c5,0.5,5.4,0.9,5.9,5.9
			C106.8,169.4,107.2,169,112.2,168.6z"/>
		<path class="st2" d="M261.6,173.7c-5-0.5-5.4-0.9-5.9-5.9c-0.5,5-0.9,5.4-5.9,5.9c5.1,0.5,5.4,0.9,5.9,5.9
			C256.1,174.5,256.5,174.1,261.6,173.7z"/>
		<path class="st2" d="M210.6,307.6c-5-0.5-5.4-0.9-5.9-5.9c-0.5,5-0.9,5.4-5.9,5.9c5.1,0.5,5.4,0.9,5.9,5.9
			C205.2,308.4,205.6,308,210.6,307.6z"/>
		<path class="st2" d="M447.9,90.2c-5-0.5-5.4-0.9-5.9-5.9c-0.5,5.1-0.9,5.4-5.9,5.9c5,0.5,5.4,0.9,5.9,5.9
			C442.5,91.1,442.9,90.7,447.9,90.2z"/>
		<path class="st2" d="M376.7,332.6c-5-0.5-5.4-0.9-5.9-5.9c-0.5,5-0.9,5.4-5.9,5.9c5,0.5,5.4,0.9,5.9,5.9
			C371.3,333.5,371.7,333.1,376.7,332.6z"/>
		<circle class="st2" cx="681.6" cy="293.5" r="5.9"/>
		
			<ellipse transform="matrix(0.7071 -0.7071 0.7071 0.7071 3.8439 463.6034)" class="st2" cx="561.5" cy="227.2" rx="5.9" ry="5.9"/>
		<path class="st2" d="M154.4,239.9c-5.1-0.5-5.4-0.9-5.9-5.9c-0.5,5.1-0.9,5.4-5.9,5.9c5,0.5,5.4,0.9,5.9,5.9
			C149,240.7,149.4,240.3,154.4,239.9z"/>
		<path class="st2" d="M357.1,116.1c-5-0.5-5.4-0.9-5.9-5.9c-0.5,5-0.9,5.4-5.9,5.9c5,0.5,5.4,0.9,5.9,5.9
			C351.7,116.9,352,116.5,357.1,116.1z"/>
		<path class="st2" d="M279.1,81.3c-5-0.5-5.4-0.9-5.9-5.9c-0.5,5-0.9,5.4-5.9,5.9c5,0.5,5.4,0.9,5.9,5.9
			C273.6,82.1,274,81.8,279.1,81.3z"/>
		<path class="st2" d="M82.8,259.1c-5-0.5-5.4-0.9-5.9-5.9c-0.5,5-0.9,5.4-5.9,5.9c5,0.5,5.4,0.9,5.9,5.9
			C77.4,260,77.8,259.6,82.8,259.1z"/>
		<path class="st2" d="M279.7,394c-5-0.5-5.4-0.9-5.9-5.9c-0.5,5-0.9,5.4-5.9,5.9c5,0.5,5.4,0.9,5.9,5.9
			C274.2,394.8,274.6,394.4,279.7,394z"/>
		<path class="st2" d="M613,396.7c-5-0.5-5.4-0.9-5.9-5.9c-0.5,5-0.9,5.4-5.9,5.9c5,0.5,5.4,0.9,5.9,5.9
			C607.6,397.5,608,397.1,613,396.7z"/>
		<path class="st2" d="M644.4,105.8c-5-0.5-5.4-0.9-5.9-5.9c-0.5,5-0.9,5.4-5.9,5.9c5,0.5,5.4,0.9,5.9,5.9
			C639,106.6,639.3,106.2,644.4,105.8z"/>
	</g>
</g>
<g id="freepik--Lines--inject-13">
	<path class="st3" d="M331.6,423.4c-65.4,0-126.4-9.9-176.5-28.9c-32.6-12.4-58.8-28-77.8-46.4c-19.7-19.1-30.9-40.3-33.2-63.2
		s4.5-45.9,20-68.5c15-21.8,37.6-42.3,67.1-60.9c60.7-38.3,143.8-64.3,234.1-73.4s176.9,0,243.9,25.5c32.6,12.4,58.8,28,77.8,46.4
		c19.8,19.1,30.9,40.3,33.2,63.2s-4.5,45.9-20,68.5c-15,21.8-37.6,42.3-67.1,60.9C572.4,384.9,489.3,410.9,399,420
		C376.2,422.2,353.6,423.4,331.6,423.4z M432.6,79.1c-22.1,0-44.6,1.1-67.4,3.4c-90.2,9-173.2,35-233.8,73.3s-91.4,84-86.9,129
		S88.3,368.5,155.2,394s153.5,34.5,243.8,25.5s173.2-35,233.8-73.3s91.4-84,86.9-129S675.9,133.5,609,108
		C558.9,89,497.9,79.1,432.6,79.1z"/>
	<path class="st3" d="M340.2,391.1c-56,0-108.3-8.8-151.2-25.6c-27.7-10.9-49.9-24.6-66.1-40.7c-16.8-16.7-26.3-35.2-28.3-55.1
		s3.7-40,16.8-59.7c12.7-19,31.8-36.8,56.7-53c51.3-33.2,121.7-55.7,198.2-63.4s149.9,0.5,206.8,22.8c27.7,10.9,49.9,24.6,66.1,40.7
		c16.8,16.7,26.3,35.2,28.3,55.2s-3.7,40-16.8,59.7c-12.7,19-31.7,36.8-56.7,53c-51.3,33.2-121.7,55.7-198.2,63.4
		C377.1,390.2,358.5,391.1,340.2,391.1z M422,91.4c-18.2,0-36.8,0.9-55.6,2.8c-76.4,7.6-146.7,30.1-198,63.3s-77.2,73-73.3,112.1
		s37.3,73.1,94.1,95.4s130.2,30.5,206.6,22.8s146.7-30.1,198-63.3s77.2-73,73.3-112.2S629.7,139.3,573,117
		C530.1,100.1,477.9,91.4,422,91.4z"/>
	<path class="st3" d="M346.6,364.5c-47.8,0-92.5-7.6-129.1-22.2c-48.4-19.4-76.9-48.7-80.3-82.6s18.8-68.3,62.4-96.9
		s103.3-47.8,168.3-54.3s127.4,0.6,175.8,19.9s76.9,48.7,80.3,82.6s-18.8,68.3-62.4,96.9s-103.4,47.8-168.3,54.3
		C377.5,363.7,361.9,364.5,346.6,364.5z M414.5,106.6c-15.3,0-30.9,0.8-46.6,2.4c-64.9,6.5-124.6,25.8-168.1,54.2
		s-65.5,62.7-62.1,96.4s31.8,62.9,80,82.2s110.6,26.4,175.5,19.9s124.6-25.8,168.1-54.2s65.5-62.7,62.2-96.4s-31.8-62.9-80-82.2
		C506.8,114.2,462.2,106.6,414.5,106.6z"/>
	<path class="st3" d="M352,337.9c-40.2,0-77.9-6.5-108.8-19c-40.6-16.5-64.6-41.4-67.5-70.2s15.7-58,52.2-82.2s86.6-40.5,141.1-45.9
		s106.8,0.6,147.4,17.1s64.5,41.4,67.4,70.2s-15.7,58-52.2,82.2s-86.6,40.5-141.1,46C377.6,337.3,364.6,337.9,352,337.9z
		 M407.4,119.1c-12.5,0-25.2,0.6-38.3,1.9c-54.4,5.4-104.4,21.7-140.9,45.9s-54.9,53.1-52,81.8c5.9,59.1,102,98.1,214.3,86.9
		S589.3,267,583.4,207.9C578.2,155.6,502.4,119.1,407.4,119.1L407.4,119.1z"/>
	<path class="st3" d="M356.7,312.8c-33.3,0-64.4-5.5-89.9-16c-33.4-13.8-53.2-34.6-55.6-58.6s12.8-48.3,42.9-68.4
		s71.2-33.7,116-38.1s87.9,0.6,121.3,14.4s53.2,34.6,55.6,58.6s-12.8,48.3-42.9,68.4s-71.2,33.6-116,38.1
		C377.5,312.2,367,312.8,356.7,312.8z M401.3,130.6c-10.1,0-20.5,0.5-31.1,1.6c-44.7,4.5-85.9,18-115.8,38s-45.1,44.2-42.7,68
		s22,44.5,55.3,58.2s76.3,18.8,121.1,14.3c92.3-9.2,163.4-56.8,158.5-106C542.2,161.1,479.7,130.6,401.3,130.6L401.3,130.6z"/>
	<path class="st3" d="M362.3,291.8c-62.4,0-112.5-25.2-116-61.2c-4-40.4,52.1-79.2,125.2-86.5s135.8,19.6,139.8,60
		c2,19.6-10,39.4-33.7,55.7s-56.1,27.2-91.5,30.8C378,291.4,370,291.8,362.3,291.8z M395.3,143.5c-7.8,0-15.7,0.4-23.8,1.2
		c-72.8,7.3-128.8,45.8-124.7,85.9s66.5,66.8,139.3,59.5c35.3-3.5,67.7-14.4,91.3-30.7s35.4-35.9,33.5-55.2l0,0
		C507.2,168.5,457.4,143.5,395.3,143.5L395.3,143.5z"/>
	<path class="st3" d="M366.3,273.2c-48.3,0-87.1-20-89.9-48.3c-1.5-15.4,7.6-31,25.9-43.8s43.2-21.3,70.4-24.1
		c56.3-5.6,104.7,15.6,107.9,47.4c1.5,15.4-7.6,31-25.9,43.8c-18.2,12.8-43.2,21.3-70.5,24.1C378.1,272.9,372.1,273.2,366.3,273.2z
		 M390.7,156.6c-5.9,0-11.8,0.3-17.9,0.9c-27.2,2.7-52.1,11.2-70.2,24s-27.2,28.1-25.7,43.4c3.2,31.5,51.3,52.6,107.3,47
		c27.2-2.7,52.1-11.2,70.2-24s27.2-28.1,25.7-43.4C477.2,176.4,438.7,156.6,390.7,156.6z"/>
	<path class="st3" d="M369.9,255.8c-33.9,0-61.2-14.1-63.2-34c-1.1-10.8,5.4-21.8,18.2-30.8s30.4-15,49.5-16.9
		c39.6-4,73.6,11,75.8,33.4c1.1,10.9-5.4,21.8-18.2,30.8s-30.4,15-49.5,16.9C378.2,255.6,374,255.8,369.9,255.8z M387,174
		c-4.1,0-8.3,0.2-12.6,0.6c-19,1.9-36.5,7.9-49.2,16.8s-19,19.7-18,30.4c2.2,22.1,36,36.9,75.2,32.9c19-1.9,36.5-7.9,49.2-16.8
		s19-19.7,18-30.4C447.8,187.8,420.7,174,387,174z"/>
	<g class="st5">
		<path class="st2" d="M331.6,423.4c-65.4,0-126.4-9.9-176.5-28.9c-32.6-12.4-58.8-28-77.8-46.4c-19.7-19.1-30.9-40.3-33.2-63.2
			s4.5-45.9,20-68.5c15-21.8,37.6-42.3,67.1-60.9c60.7-38.3,143.8-64.3,234.1-73.4s176.9,0,243.9,25.5c32.6,12.4,58.8,28,77.8,46.4
			c19.8,19.1,30.9,40.3,33.2,63.2s-4.5,45.9-20,68.5c-15,21.8-37.6,42.3-67.1,60.9C572.4,384.9,489.3,410.9,399,420
			C376.2,422.2,353.6,423.4,331.6,423.4z M432.6,79.1c-22.1,0-44.6,1.1-67.4,3.4c-90.2,9-173.2,35-233.8,73.3s-91.4,84-86.9,129
			S88.3,368.5,155.2,394s153.5,34.5,243.8,25.5s173.2-35,233.8-73.3s91.4-84,86.9-129S675.9,133.5,609,108
			C558.9,89,497.9,79.1,432.6,79.1z"/>
		<path class="st2" d="M340.2,391.1c-56,0-108.3-8.8-151.2-25.6c-27.7-10.9-49.9-24.6-66.1-40.7c-16.8-16.7-26.3-35.2-28.3-55.1
			s3.7-40,16.8-59.7c12.7-19,31.8-36.8,56.7-53c51.3-33.2,121.7-55.7,198.2-63.4s149.9,0.5,206.8,22.8
			c27.7,10.9,49.9,24.6,66.1,40.7c16.8,16.7,26.3,35.2,28.3,55.2s-3.7,40-16.8,59.7c-12.7,19-31.7,36.8-56.7,53
			c-51.3,33.2-121.7,55.7-198.2,63.4C377.1,390.2,358.5,391.1,340.2,391.1z M422,91.4c-18.2,0-36.8,0.9-55.6,2.8
			c-76.4,7.6-146.7,30.1-198,63.3s-77.2,73-73.3,112.1s37.3,73.1,94.1,95.4s130.2,30.5,206.6,22.8s146.7-30.1,198-63.3
			s77.2-73,73.3-112.2S629.7,139.3,573,117C530.1,100.1,477.9,91.4,422,91.4z"/>
		<path class="st2" d="M346.6,364.5c-47.8,0-92.5-7.6-129.1-22.2c-48.4-19.4-76.9-48.7-80.3-82.6s18.8-68.3,62.4-96.9
			s103.3-47.8,168.3-54.3s127.4,0.6,175.8,19.9s76.9,48.7,80.3,82.6s-18.8,68.3-62.4,96.9s-103.4,47.8-168.3,54.3
			C377.5,363.7,361.9,364.5,346.6,364.5z M414.5,106.6c-15.3,0-30.9,0.8-46.6,2.4c-64.9,6.5-124.6,25.8-168.1,54.2
			s-65.5,62.7-62.1,96.4s31.8,62.9,80,82.2s110.6,26.4,175.5,19.9s124.6-25.8,168.1-54.2s65.5-62.7,62.2-96.4s-31.8-62.9-80-82.2
			C506.8,114.2,462.2,106.6,414.5,106.6z"/>
		<path class="st2" d="M352,337.9c-40.2,0-77.9-6.5-108.8-19c-40.6-16.5-64.6-41.4-67.5-70.2s15.7-58,52.2-82.2
			s86.6-40.5,141.1-45.9s106.8,0.6,147.4,17.1s64.5,41.4,67.4,70.2s-15.7,58-52.2,82.2s-86.6,40.5-141.1,46
			C377.6,337.3,364.6,337.9,352,337.9z M407.4,119.1c-12.5,0-25.2,0.6-38.3,1.9c-54.4,5.4-104.4,21.7-140.9,45.9s-54.9,53.1-52,81.8
			c5.9,59.1,102,98.1,214.3,86.9S589.3,267,583.4,207.9C578.2,155.6,502.4,119.1,407.4,119.1L407.4,119.1z"/>
		<path class="st2" d="M356.7,312.8c-33.3,0-64.4-5.5-89.9-16c-33.4-13.8-53.2-34.6-55.6-58.6s12.8-48.3,42.9-68.4
			s71.2-33.7,116-38.1s87.9,0.6,121.3,14.4s53.2,34.6,55.6,58.6s-12.8,48.3-42.9,68.4s-71.2,33.6-116,38.1
			C377.5,312.2,367,312.8,356.7,312.8z M401.3,130.6c-10.1,0-20.5,0.5-31.1,1.6c-44.7,4.5-85.9,18-115.8,38s-45.1,44.2-42.7,68
			s22,44.5,55.3,58.2s76.3,18.8,121.1,14.3c92.3-9.2,163.4-56.8,158.5-106C542.2,161.1,479.7,130.6,401.3,130.6L401.3,130.6z"/>
		<path class="st2" d="M362.3,291.8c-62.4,0-112.5-25.2-116-61.2c-4-40.4,52.1-79.2,125.2-86.5s135.8,19.6,139.8,60
			c2,19.6-10,39.4-33.7,55.7s-56.1,27.2-91.5,30.8C378,291.4,370,291.8,362.3,291.8z M395.3,143.5c-7.8,0-15.7,0.4-23.8,1.2
			c-72.8,7.3-128.8,45.8-124.7,85.9s66.5,66.8,139.3,59.5c35.3-3.5,67.7-14.4,91.3-30.7s35.4-35.9,33.5-55.2l0,0
			C507.2,168.5,457.4,143.5,395.3,143.5L395.3,143.5z"/>
		<path class="st2" d="M366.3,273.2c-48.3,0-87.1-20-89.9-48.3c-1.5-15.4,7.6-31,25.9-43.8s43.2-21.3,70.4-24.1
			c56.3-5.6,104.7,15.6,107.9,47.4c1.5,15.4-7.6,31-25.9,43.8c-18.2,12.8-43.2,21.3-70.5,24.1C378.1,272.9,372.1,273.2,366.3,273.2z
			 M390.7,156.6c-5.9,0-11.8,0.3-17.9,0.9c-27.2,2.7-52.1,11.2-70.2,24s-27.2,28.1-25.7,43.4c3.2,31.5,51.3,52.6,107.3,47
			c27.2-2.7,52.1-11.2,70.2-24s27.2-28.1,25.7-43.4C477.2,176.4,438.7,156.6,390.7,156.6z"/>
		<path class="st2" d="M369.9,255.8c-33.9,0-61.2-14.1-63.2-34c-1.1-10.8,5.4-21.8,18.2-30.8s30.4-15,49.5-16.9
			c39.6-4,73.6,11,75.8,33.4c1.1,10.9-5.4,21.8-18.2,30.8s-30.4,15-49.5,16.9C378.2,255.6,374,255.8,369.9,255.8z M387,174
			c-4.1,0-8.3,0.2-12.6,0.6c-19,1.9-36.5,7.9-49.2,16.8s-19,19.7-18,30.4c2.2,22.1,36,36.9,75.2,32.9c19-1.9,36.5-7.9,49.2-16.8
			s19-19.7,18-30.4C447.8,187.8,420.7,174,387,174z"/>
	</g>
</g>
<g id="freepik--Neptune--inject-13">
	
		<ellipse transform="matrix(0.2663 -0.9639 0.9639 0.2663 -274.1832 411.0449)" class="st6" cx="132.9" cy="385.6" rx="21.7" ry="21.7"/>
	<path class="st7" d="M147.3,370.5c0,0-3.1-4.3-6.9-2.7s-3.4,4.7-3,6.4s2,3.2,0.9,4.3s-3.7,1.8-3.6,3.5c0.2,1.4,0.5,2.7,0.9,4.1
		l-0.2,3c0,0,0.2,1.7-2.2,2.4s-3.7-0.1-5.2,1.7s-2.5,1.7-2.1,3.4s0.5,2.9,3.9,5c3.4,2.1,10.5,2.4,15.1-0.5s7.7-5.7,8.5-13.1
		S150.4,372.7,147.3,370.5z"/>
	<path class="st7" d="M115.3,376c0,0-1.5,2.3-1.5,7.2s4.6,6.9,5.5,3.6s-1.1-8.9,2.2-12s9.7-5.4,7.4-7.1S116.7,370,115.3,376z"/>
	<path class="st7" d="M120.4,394.7c0,0-3.6-1.6-3.6,0.9s3.1,6.8,5,3.4S121.8,394.8,120.4,394.7z"/>
	<path class="st7" d="M132.2,376.7c0,0-8.3-0.4-5.5,3.5S134.9,379.1,132.2,376.7z"/>
</g>
<g id="freepik--Uranus--inject-13">
	<path class="st8" d="M593.8,107.3c8.1,4,11.4,13.8,7.3,21.9c-4,8.1-13.8,11.4-21.9,7.3c-8.1-4-11.4-13.8-7.3-21.9
		C575.9,106.6,585.7,103.3,593.8,107.3z"/>
	<g class="st9">
		<path d="M590.9,117.6c2.6-1.3,7.4-1.9,10.5-2.2c0.1,0.2,0.2,0.5,0.3,0.8c-4.6,1.8-13.9,5.3-15.2,5.9s-8.2,6.8-11.8,11.3
			c-0.5-0.6-1-1.2-1.5-1.8c1.8-1.8,5.6-5.5,6.6-6.4C583.2,122.2,587,119.7,590.9,117.6z"/>
		<path d="M585.7,135.3c1.8-1.6,3.4-2.1,6.6-4s7.4-4.7,8.8-5.1c0.4-0.1,0.8-0.2,1.2-0.3c-0.3,1.2-0.7,2.3-1.2,3.3
			c-1.1,0.4-2.8,1-5.3,2c-5,2.1-7.7,4.9-9.4,5.9l-1.6,1c-0.4-0.1-0.9-0.1-1.3-0.2C584,137,584.8,136.1,585.7,135.3z"/>
		<path d="M577.4,134.6c2.3-0.2,2.8-3.3,4.2-5s8.2-4.5,12.2-5.8c3-1.1,6-2.5,8.8-4.1c0.1,0.9,0.2,1.9,0.1,2.8
			c-2.1,1.4-4.4,2.6-6.7,3.6c-4.8,2.1-5.3,0-9.2,2.7c-2.9,2.2-5.5,4.8-7.7,7.8c-1-0.5-2-1.1-2.9-1.9
			C576.6,134.6,577,134.6,577.4,134.6z"/>
		<path d="M594.5,110.2c-2.9,0.5-4.1,2.5-6.2,5s-4.4,2.7-8.3,4.2c-2.5,1-6.7,4.2-9.4,6.3c-0.3-1.3-0.4-2.7-0.4-4
			c1.1-0.8,2.1-1.7,3.1-2.7c1-1.1,2.5-1.8,4-1.8c5.9-0.7,8.4-2.1,10.2-5.5s6.3-4.3,6.3-4.3c1.2,0.6,2.2,1.3,3.2,2.1
			C596.2,109.8,595.3,110,594.5,110.2z"/>
		<path d="M571.4,115.7c0.1-0.3,0.3-0.7,0.4-1c3.1-6.3,10-9.9,16.9-8.9c-1.4,2-2.9,0.6-7.3,3.2s-2.7,4-6.2,4.7
			C573.8,114,572.5,114.7,571.4,115.7z"/>
		<path d="M585.8,110.6c0,0-1,3.4-2.9,4.1c-1.6,0.4-3.4,0.6-5,0.5C577.9,115.1,582,110.8,585.8,110.6z"/>
	</g>
	<g class="st9">
		<path d="M589.5,107.5c-0.7,0.3-1.4,0.6-2.2,0.9c-2.1,0.8-4.1,1.7-6,2.8c-1.5,0.9-2.8,1.9-4.1,3.1c-1,1-2.2,1.8-3.5,2.3
			c-1.1,0.4-2.2,0.9-3.2,1.5c0.1-0.4,0.2-0.8,0.3-1.2c0.9-0.5,1.7-0.9,2.7-1.2c1.2-0.5,2.3-1.2,3.1-2.2c1.3-1.2,2.7-2.3,4.2-3.2
			c1.9-1.2,4-2.1,6.1-2.9c0.8-0.3,1.5-0.6,2.1-0.9c0.4-0.2,0.7-0.4,1-0.6c0.4,0.1,0.7,0.2,1.1,0.3
			C590.7,106.8,590.1,107.2,589.5,107.5z"/>
		<path d="M593.5,111.8c-1.6,0.7-2.3,1.6-3.2,3.1c-0.5,0.8-1.1,1.7-1.8,2.4c-1.2,1.4-2.8,2.3-4.5,2.8c-4.7,1.7-9,4.5-12.6,8
			c-0.1-0.3-0.2-0.6-0.3-0.9c2-1.9,4.2-3.6,6.6-5c1.9-1.2,4-2.1,6.1-2.9c1.8-0.7,3-1.1,4.2-2.6c0.6-0.8,1.2-1.6,1.7-2.4
			c0.7-1.2,1.6-2.2,2.7-3c0.3-0.2,0.6-0.3,0.9-0.4c1.1-0.4,2.5-1,3.8-1.5c0.2,0.2,0.5,0.4,0.7,0.7
			C596.3,110.7,594.7,111.3,593.5,111.8z"/>
		<path d="M587.4,122.3c0.9-0.5,1.8-1,2.7-1.3c3.7-1.4,10.6-3.5,11.6-3.8l0.3-0.3c0.1,0.3,0.2,0.7,0.3,1l-0.1,0.1h-0.1
			c-0.1,0-7.7,2.3-11.6,3.8s-7.3,4.9-9.3,7c-1.9,1.8-4,3.4-6.2,4.8l-0.3-0.3l-0.2-0.4c2.2-1.4,4.2-3,6.1-4.7
			C582.6,125.9,584.9,124,587.4,122.3z"/>
		<path d="M579.8,136.9c1.5-2.3,3.5-4.3,5.8-5.9c0.5-0.3,1-0.5,1.5-0.7c1.8-0.7,3.3-1.1,4.6-1.5c1.7-0.4,3.4-1.1,5-2
			c1.1-0.7,2.2-1.6,3.1-2.5c0.8-0.9,1.7-1.6,2.8-2.1l0.2-0.1c0,0.3,0,0.6,0,1c-0.9,0.5-1.7,1.1-2.3,1.8c-1,1-2.1,1.9-3.2,2.6
			c-1.6,0.9-3.4,1.6-5.2,2.1c-1.3,0.4-2.8,0.8-4.5,1.5c-3,1.2-5.6,4.4-6.8,6.2C580.3,137.1,580,137,579.8,136.9z"/>
	</g>
	<g class="st10">
		<path class="st2" d="M585,151.8c-0.4,0-0.8,0-1.2,0c-4.5-0.6-7.8-7.8-8.7-17.9l1.1,0.8c0.8,9.4,3.8,15.6,7.7,16.1
			c6.1,0.8,12.7-11.7,14.7-27.8s-1.2-29.8-7.3-30.5c-4-0.5-8.6,5.2-11.8,14.5l-1.2,0.7c3.3-9.9,8.5-16.7,13.1-16.2
			c6.7,0.8,10.3,14.8,8.2,31.7C597.7,139.1,591.4,151.2,585,151.8z"/>
	</g>
</g>
<g id="freepik--Saturn--inject-13">
	<circle class="st6" cx="420.1" cy="356.1" r="25.9"/>
	<g class="st11">
		<path d="M442,342.1l-47,20.2c0.1,0.5,0.2,0.9,0.4,1.3l47.4-20.4C442.5,342.9,442.2,342.5,442,342.1z"/>
		<path d="M429.2,331.7c-0.7-0.2-1.3-0.5-2-0.6l-30,12.9c-0.1,0.1-0.2,0.3-0.2,0.4c-0.2,0.5-0.4,1-0.6,1.5L429.2,331.7z"/>
		<path d="M411.3,380.4l32.8-14.5c0.2-0.6,0.5-1.2,0.7-1.8l-35.2,15.5C410.1,379.9,410.7,380.2,411.3,380.4z"/>
		<path d="M437,336.4c-0.4-0.3-0.8-0.7-1.2-1l-41.6,18.8c0,0.5,0,1,0,1.5L437,336.4z"/>
		<path d="M395.8,365c0.2,0.4,0.3,0.9,0.5,1.3l47.5-20.9c-0.2-0.4-0.4-0.8-0.6-1.2L395.8,365z"/>
		<path d="M442.6,368.8c0.2-0.4,0.5-0.8,0.7-1.2s0.2-0.5,0.3-0.8l-31.4,13.8c0.7,0.2,1.4,0.4,2.1,0.6L442.6,368.8z"/>
		<path d="M403.4,375.8l42.6-18c0-0.5,0-1,0-1.5l-43.8,18.5C402.6,375.2,403,375.5,403.4,375.8z"/>
	</g>
	<path class="st12" d="M463.1,336.5c-2.3-5.1-13.5-5.5-28-1.7c1.6,1.2,3.2,2.5,4.5,4c5.3-0.6,9.1,0,10.1,2
		c2.3,4.6-9.6,14.5-26.6,22.1s-32.7,10.2-35.1,5.7c-1.2-2.3,1.3-6,6.3-10.1c-0.2-1.9-0.2-3.9,0.1-5.8c-13.6,8.8-21.5,17.9-19.1,23.3
		c3.4,7.5,25.8,4.8,50-6.1S466.4,344,463.1,336.5z"/>
	<path class="st13" d="M436.2,336.6c11.3-2.5,19.6-2,21.4,2c2.8,6.4-12.3,19.2-33.8,28.7s-41.2,12.1-44,5.7
		c-1.9-4.2,4.2-11.3,14.8-18.4"/>
</g>
<g id="freepik--Jupiter--inject-13">
	<circle class="st8" cx="182.1" cy="213.8" r="27.3"/>
	<g class="st9">
		<path d="M192.5,215.2c4.8-0.9,11.8-4.8,16.3-7.5c-0.1-0.4-0.2-0.9-0.4-1.3c-8,2.3-23.9,6.9-26.3,7.4c-2.6,0.6-17.9-0.9-27.1-3.3
			c-0.2,1.3-0.2,2.6-0.2,3.9c4.3,0.6,13,1.8,15.2,2C177.6,216.7,185.1,216.3,192.5,215.2z"/>
		<path d="M167.7,196.7c4,0.3,6.6-0.7,12.9-1.3s14.6-1.1,16.9-2c0.7-0.3,1.3-0.5,1.9-0.8c-1.5-1.3-3.2-2.3-5-3.2
			c-1.8,0.6-4.7,1.5-9.1,2.6c-8.8,2.2-15.3,1.2-18.6,1.5l-3.2,0.3c-0.5,0.5-1,1-1.5,1.6C163.8,196.1,165.7,196.5,167.7,196.7z"/>
		<path d="M157.4,206c3.3-2.1,7.1,1.6,10.7,2.4s15.4-2.1,22.1-4.5c4.6-1.7,11.9-2.8,15.9-3.3c-0.8-1.4-1.7-2.7-2.6-3.9
			c-4.2,0.3-8.5,0.9-12.6,1.9c-8.5,2-7,5.3-15.1,5.6s-18.1-2.7-18.1-2.7c-0.9,1.7-1.5,3.5-2,5.4C156.3,206.7,156.9,206.3,157.4,206z
			"/>
		<path d="M204.7,221.5c-4.4,2.2-8,0.8-13.4-0.4s-8.6,0.9-15.4,2.7c-4.4,1.2-13.2,1.1-18.9,0.9c0.9,2.1,2.1,4,3.5,5.8
			c1.7-0.1,3.4,0.2,6.8,0.5s4,0.2,7.2-1.6c8.6-4.9,13.3-5.6,19.1-2.9c6,2.7,12.8-0.5,12.8-0.5c1-1.9,1.7-4,2.2-6.1
			C207.4,220.4,206,220.9,204.7,221.5z"/>
		<path d="M168.3,237.3c0.5,0.3,1,0.6,1.6,0.9c10.5,5.3,23.2,3.2,31.5-5.1c-3.8-1.2-4.5,2.1-13,3s-7.6-2.6-13.1,0
			C173.2,237.2,170.7,237.6,168.3,237.3z"/>
		<path d="M192.7,229.6c0,0-4.7-3.5-7.9-2.6s-7.2,4.4-7.2,4.4S187.4,233.2,192.7,229.6z"/>
	</g>
	<g class="st9">
		<path d="M200.7,230.1c-1.2,0.2-2.4,0.6-3.8,1c-3.5,1.1-7.2,1.8-10.9,2.2c-2.8,0.2-5.7,0.2-8.6-0.1c-2.8-0.2-5-0.4-7,0.4
			c-1.9,0.6-3.9,1-5.9,1.2c0.5,0.4,1.1,0.8,1.6,1.2c1.6-0.2,3.2-0.6,4.7-1.1c1.7-0.6,3.8-0.5,6.4-0.3c2.9,0.3,5.9,0.4,8.8,0.1
			c3.8-0.4,7.5-1.1,11.1-2.2c1.4-0.4,2.5-0.7,3.7-0.9c0.7-0.1,1.3-0.2,2-0.2c0.4-0.5,0.8-0.9,1.1-1.4
			C203,229.9,201.9,230,200.7,230.1z"/>
		<path d="M201.7,220.3c-2.9,0.7-4.7,0.1-7.4-0.9c-1.6-0.6-3.2-1.1-4.8-1.5c-3.4-0.8-5.7-0.2-8.9,0.8c-8.1,2.4-16.5,3.1-24.9,2
			c0.1,0.5,0.3,1,0.4,1.5c4.6,0.6,9.2,0.6,13.8,0.1c3.8-0.4,7.5-1.1,11.1-2.3c3.1-0.9,5.1-1.5,8.1-0.7c1.6,0.4,3.2,0.9,4.7,1.5
			c2.3,0.8,4.2,1.5,6.6,1.2c0.6-0.1,1.1-0.2,1.6-0.3c1.9-0.5,4.4-1.2,6.7-1.8c0.1-0.5,0.3-1.1,0.4-1.6
			C206.6,219,203.8,219.8,201.7,220.3z"/>
		<path d="M183,212.4c1.7-0.2,3.4-0.5,5-0.9c6.3-1.9,17.7-6,19.3-6.6l0.7,0.1c-0.2-0.5-0.4-1.1-0.6-1.6h-0.2l-0.2,0.1
			c-0.1,0-12.6,4.6-19.4,6.6s-14.7,0.7-19.4,0s-12-0.3-13.1-0.3c0,0.2-0.1,0.5-0.1,0.7l0.1,0.7c0.1,0,7.9-0.6,12.9,0.2
			C171.7,212,177.4,212.9,183,212.4z"/>
		<path d="M158.2,200.5c2.9,1,8.6,2.6,13.7,2c0.9-0.1,1.8-0.3,2.7-0.5c3.1-0.9,5.6-1.8,7.7-2.6c2.8-1.2,5.7-2,8.7-2.4
			c2.2-0.2,4.5-0.1,6.7,0.3c1.9,0.4,3.9,0.4,5.8,0l0.3-0.1c-0.3-0.4-0.6-0.9-1-1.3c-1.7,0.2-3.4,0.2-5-0.1c-2.3-0.4-4.7-0.5-7-0.3
			c-3.1,0.4-6.2,1.3-9.1,2.5c-2.1,0.8-4.6,1.7-7.6,2.6c-5.2,1.4-11.9-0.3-15.3-1.4C158.7,199.6,158.5,200.1,158.2,200.5z"/>
	</g>
</g>
<g id="freepik--Mars--inject-13">
	<path class="st6" d="M294.8,308.3c3.5-7.1,0.7-15.7-6.4-19.2c-7.1-3.5-15.7-0.7-19.2,6.4c-3.5,7.1-0.7,15.7,6.4,19.2c0,0,0,0,0,0
		C282.6,318.2,291.2,315.4,294.8,308.3z"/>
	<g class="st14">
		<path d="M290.6,298.2c0.6-0.7,1.8,0.6,1-1.7s-0.4-4.1-3-4.9c0,0-2.9-0.6-3.4,0.5s0.7,0.8,0.1,2.2s-0.3,1.7-1.5,1.7s-2.2-4-3.7-0.7
			s-2.4,4.3-1.5,4.7s3.3-0.7,4,0.4s0.8,2.9,0.1,3.1s-2-1.5-2.9-0.5s-0.5,3.3,0.4,4s4.5,3.2,7.4,1.6s4.3-1.7,3.9-4s-1.2-3-1.5-4.4
			S290,298.9,290.6,298.2z"/>
		<path d="M272.1,304.6c-0.4,0.4-1.6,1.3-0.9,2.3s1.4,1.8,1.8,1.8s1.6,0.2,1.7-1.2s1.1-0.5,0.1-1.5S273,303.8,272.1,304.6z"/>
		<path d="M282.7,311.1c-1.7,0.3-2.9,0.9-1.4,1.7s4.8-0.3,4.8-0.3s1-1.3,0.5-1.8S284.4,310.8,282.7,311.1z"/>
		<path d="M282.8,309.4c-1.1-0.9-3.5,0.1-3.5,0.1s-1.4-1.2-2.3-0.6s-1.9,1.8-0.5,1.9s2.6-1.4,4.4-0.6S284,310.4,282.8,309.4z"/>
		<path d="M271.3,296.1c-0.4,2.3,1.5,0.6,1.2,1.7s-1.7,1-1.8,2.9s2.2,2.9,2.6,1.7s1-3,1-3c0.6-0.7,0.8-1.6,0.7-2.5
			C274.9,295.1,271.7,293.8,271.3,296.1z"/>
		<path d="M294.2,302c-0.8-2.7-1.4,0.8-1.4,0.8c0.3,0.5,0.3,1,0,1.5v0.1c-0.4,1-1.4,1.5-1,2S295,304.7,294.2,302z"/>
	</g>
</g>
<g id="freepik--Earth--inject-13">
	<path class="st12" d="M498.3,260.2c-0.3-3.1-3.1-5.4-6.3-5.1c-3.1,0.3-5.4,3.1-5.1,6.3c0.3,3.1,3.1,5.4,6.3,5.1c0,0,0,0,0,0
		C496.3,266.1,498.6,263.3,498.3,260.2z"/>
	<circle class="st6" cx="466.7" cy="266.3" r="15.9"/>
	<path class="st0" d="M475.9,261.9l2.5,1.8c1.1-2.2,1.2-3.3,0.4-4s-3.2-3.1-3.2-3.1c-0.8-1-2-1.6-3.3-1.5l-3.4,0.3
		c-0.8-0.4-1.6-0.6-2.5-0.7c1.5-1.4,2.7-1.3,1-1.5c-2.1-0.3-3.4-0.4-4.2-0.1s-1.8,0.7-2.8,1.1c-1.9,0.4-3.6,1.6-4.6,3.3
		c0,0-2.7,2.9-2.8,4.1c-0.1,0.9,1.5-0.4,2.4-1.2l-0.2,1.5c0,0-0.3,2.6,1.1,3l1.3,0.4c0.9,0.7,1.9,1.1,3,1.3c0,0,0.8,0.2,0.7,1.8
		c0,1.2,0,2.4,0.1,3.6c0,0-0.8,0.1,1,2c1.2,1.3,2.4,2.4,3.7,3.5c0,0,1.5,2.2,1.9,0.6s1.2-3.8,0.9-4.5s1.6,0.4-0.3-0.8
		c-1.2-0.7-2.4-1.6-3.4-2.5c-1.5-1.9-1.8,0.2-1.5-1.9s0.4-3.4,0.4-3.4c-1.1-0.9-2.4-1.4-3.8-1.5c-1-2.5-1.6-3.5-0.9-4.1
		c0,0,0.5,1.5,1.2,1.6s0.7-1.8,0.7-1.8l2-3.1c0,0,1.6,0.5,2.3-0.5c0.3,1.1,0,2.3-0.7,3.2l0.2,2.3l3.8-0.6l-1.6,2.5l-0.7,3.1l0.7,1.6
		l2.5,1.6l3.6,5.1c1-0.2,1.8-0.8,2.5-1.5c0.7-1.1,1.3-2.3,1.5-3.5c0.1-1.3,0.9-1.9,0-2.9l-0.9-1c0,0-1.7-0.9-1.5-1.7
		C475.4,263.2,475.6,262.5,475.9,261.9z"/>
</g>
<g id="freepik--Venus--inject-13">
	<circle class="st12" cx="384.2" cy="272.1" r="15"/>
	<g class="st15">
		<path d="M392.4,260c0.4,0,0.8,0.1,1.1,0.3c-1.8-1.5-4-2.5-6.2-2.9c-1.1,1.1-4.4,4.4-6.5,7l-1.6,1.9l-3,3.6
			c3.2-2.1,6.3-4.3,9.2-6.7C387.7,261.1,392.4,260,392.4,260z"/>
		<path d="M397.4,264.8c-0.5-0.9-1.1-1.8-1.8-2.6c-0.7,1-1.5,2-2.3,2.8c-3.7,4.2-6,4.1-3.7,4.2C391.5,269.3,396.2,265.7,397.4,264.8
			z"/>
		<path d="M399.2,270.6v2.5C399.2,272.3,399.2,271.4,399.2,270.6z"/>
		<path d="M395.2,261.9c-0.1-0.2-0.3-0.3-0.5-0.5l0,0C394.8,261.6,395,261.8,395.2,261.9z"/>
		<path d="M399.1,273.7c-1.9,1-3.7,2.1-5.4,3.4c-2.4,1.8-8.9,6.9-8.9,6.9l-4.2,2.3c-0.1,0.1-0.3,0.1-0.4,0.2
			c1.8,0.5,3.6,0.6,5.4,0.5c1.9-0.6,5.1-6.5,12.1-8.6C398.5,277,399,275.4,399.1,273.7z"/>
	</g>
	<g class="st15">
		<path d="M388.6,273.1c0,0-12.4,6.6-16.4,7.9c0.8,1,1.7,2,2.7,2.8c1.8-0.9,3.8-2.1,5.9-3.5c5.7-3.8,7-3.6,10.5-6.5
			S388.6,273.1,388.6,273.1z"/>
		<path d="M371.5,280.1c1.7-1.8,5.8-3.8,6.2-7.1c0.4-2.8-4.8,1.2-7.9,3.7C370.3,277.9,370.8,279,371.5,280.1z"/>
	</g>
</g>
<g id="freepik--Mercury--inject-13">
	<path class="st12" d="M450.7,230.4c-0.6-6-5.9-10.3-11.9-9.7c-6,0.6-10.3,5.9-9.7,11.9c0.6,6,5.9,10.3,11.9,9.7
		C446.9,241.7,451.3,236.4,450.7,230.4C450.7,230.4,450.7,230.4,450.7,230.4z"/>
	<path class="st0" d="M433.5,228.2c0,0.2-0.1,0.4-0.4,0.4c-0.2,0-0.4-0.1-0.4-0.4c0-0.2,0.1-0.4,0.4-0.4c0,0,0,0,0,0
		C433.3,227.8,433.5,228,433.5,228.2C433.5,228.2,433.5,228.2,433.5,228.2z"/>
	<path class="st0" d="M436.2,226.7c0,0.3-0.2,0.6-0.5,0.6c0,0,0,0,0,0c-0.3,0-0.6-0.2-0.6-0.5c0-0.3,0.2-0.6,0.5-0.6
		C435.9,226.2,436.2,226.4,436.2,226.7z"/>
	<path class="st0" d="M435.9,230.9c0,0.1,0,0.1-0.1,0.1c0,0,0,0,0,0c-0.1,0-0.1,0-0.1-0.1c0,0,0,0,0,0c0-0.1,0-0.1,0.1-0.1
		S435.9,230.7,435.9,230.9C435.9,230.8,435.9,230.9,435.9,230.9L435.9,230.9z"/>
	<path class="st0" d="M442,229.1c0,0.2-0.1,0.3-0.3,0.3c0,0,0,0,0,0c-0.2,0-0.3-0.1-0.3-0.3c0-0.2,0.1-0.3,0.3-0.3l0,0
		C441.8,228.9,442,229,442,229.1C442,229.1,442,229.1,442,229.1z"/>
	<path class="st0" d="M440.4,226.2c0,0.2-0.1,0.4-0.3,0.5s-0.4-0.1-0.5-0.3c0,0,0-0.1,0-0.1c0-0.2,0.1-0.4,0.4-0.4c0,0,0,0,0,0
		C440.2,225.8,440.4,226,440.4,226.2C440.4,226.2,440.4,226.2,440.4,226.2z"/>
	<path class="st0" d="M437.5,229.3c0,0.1-0.1,0.2-0.2,0.2c-0.1,0-0.2-0.1-0.2-0.1c0,0,0,0,0,0c0-0.1,0.1-0.2,0.1-0.2
		C437.4,229.2,437.5,229.2,437.5,229.3C437.5,229.3,437.5,229.3,437.5,229.3z"/>
	<path class="st0" d="M440.1,231.5c0,0.1-0.1,0.2-0.2,0.2c0,0,0,0,0,0c-0.1,0-0.2-0.1-0.3-0.2c0,0,0,0,0,0c0-0.1,0.1-0.2,0.2-0.2
		c0,0,0,0,0,0C440,231.3,440.1,231.4,440.1,231.5z"/>
	<path class="st0" d="M434.5,234.4c0,0.2-0.1,0.4-0.4,0.5c-0.2,0-0.4-0.1-0.5-0.4c0-0.2,0.1-0.4,0.3-0.5
		C434.2,234,434.4,234.1,434.5,234.4C434.5,234.3,434.5,234.3,434.5,234.4z"/>
	<path class="st0" d="M439.5,235.4c0.1,0.3,0,0.6-0.3,0.7c-0.3,0.1-0.6,0-0.7-0.3c0-0.1-0.1-0.2,0-0.3c0-0.3,0.2-0.5,0.5-0.6
		C439.3,234.9,439.5,235.1,439.5,235.4z"/>
	<path class="st0" d="M444.3,231c0,0.3-0.2,0.5-0.4,0.5c0,0,0,0,0,0c-0.3,0-0.5-0.2-0.5-0.4c0-0.3,0.2-0.5,0.4-0.5
		C444,230.6,444.2,230.7,444.3,231C444.3,231,444.3,231,444.3,231z"/>
	<path class="st0" d="M444.5,224.6c0,0.2-0.1,0.4-0.3,0.4c0,0,0,0,0,0c-0.2,0-0.4-0.1-0.4-0.3c0,0,0,0,0,0c0-0.2,0.1-0.4,0.3-0.4
		C444.3,224.2,444.4,224.4,444.5,224.6z"/>
	<path class="st0" d="M439.6,223.5c0,0.2-0.1,0.4-0.3,0.4c-0.2,0-0.4-0.1-0.4-0.3c0-0.2,0.1-0.4,0.3-0.4S439.6,223.3,439.6,223.5
		L439.6,223.5z"/>
	<path class="st0" d="M447.5,228.6c0,0.1-0.1,0.2-0.3,0.2c-0.1,0-0.2-0.1-0.2-0.2c0-0.1,0.1-0.2,0.3-0.2
		C447.3,228.5,447.4,228.5,447.5,228.6z"/>
	<path class="st0" d="M446,232.7c0,0.2-0.1,0.4-0.3,0.4c0,0,0,0,0,0c-0.2,0-0.4-0.1-0.4-0.3c0-0.2,0.1-0.4,0.3-0.4
		C445.8,232.3,446,232.5,446,232.7z"/>
	<path class="st0" d="M443.3,235.2c0,0.2-0.1,0.4-0.3,0.4c0,0,0,0,0,0c-0.2,0-0.4-0.1-0.4-0.3c0-0.2,0.1-0.4,0.3-0.4
		C443.1,234.9,443.3,235,443.3,235.2z"/>
	<path class="st0" d="M441.2,238.4c0,0.2-0.1,0.4-0.3,0.4c-0.2,0-0.4-0.1-0.4-0.3c0-0.2,0.1-0.4,0.3-0.4
		C441.1,238.1,441.2,238.3,441.2,238.4C441.2,238.4,441.2,238.4,441.2,238.4z"/>
	<path class="st0" d="M433.9,238.7c0,0.2-0.1,0.4-0.3,0.5c-0.2,0-0.4-0.1-0.5-0.3c0,0,0-0.1,0-0.1c0-0.2,0.1-0.4,0.3-0.4
		c0,0,0,0,0,0C433.6,238.3,433.8,238.4,433.9,238.7C433.8,238.7,433.8,238.7,433.9,238.7z"/>
	<path class="st0" d="M436.5,237.9c0,0.2-0.1,0.4-0.4,0.5c-0.2,0-0.4-0.1-0.5-0.4s0.1-0.4,0.4-0.5c0,0,0,0,0,0
		C436.3,237.5,436.5,237.7,436.5,237.9C436.5,237.9,436.5,237.9,436.5,237.9z"/>
	<path class="st0" d="M432.2,230.6c0,0.3-0.2,0.5-0.5,0.6c0,0,0,0,0,0c-0.3,0-0.5-0.2-0.5-0.5c0-0.3,0.2-0.5,0.4-0.5
		C431.9,230.1,432.2,230.3,432.2,230.6z"/>
	<path class="st0" d="M432.6,233c0,0.2-0.1,0.4-0.3,0.4c-0.2,0-0.4-0.1-0.4-0.3c0-0.2,0.1-0.4,0.3-0.4c0,0,0,0,0,0
		C432.4,232.7,432.6,232.8,432.6,233z"/>
	<path class="st0" d="M446.4,236.6c0,0.2-0.1,0.4-0.4,0.4c0,0,0,0,0,0c-0.2,0-0.4-0.1-0.4-0.4c0,0,0,0,0,0c0-0.2,0.1-0.4,0.4-0.4
		C446.1,236.2,446.3,236.4,446.4,236.6z"/>
	<path class="st0" d="M449.1,232.4c0,0.1-0.2,0.2-0.3,0.2c-0.1,0-0.2-0.1-0.2-0.2c0-0.1,0.1-0.2,0.2-0.3
		C449,232.1,449.1,232.2,449.1,232.4C449.1,232.3,449.1,232.3,449.1,232.4z"/>
	<path class="st0" d="M438.1,231.9c0,0.3-0.2,0.5-0.4,0.5c0,0,0,0,0,0c-0.3,0-0.5-0.2-0.5-0.4c0-0.3,0.2-0.5,0.4-0.5
		S438.1,231.7,438.1,231.9C438.1,231.9,438.1,231.9,438.1,231.9z"/>
	<path class="st0" d="M436.9,224c0,0.2-0.1,0.4-0.4,0.4c0,0,0,0,0,0c-0.2,0-0.4-0.2-0.4-0.4c0-0.2,0.1-0.3,0.3-0.4
		C436.6,223.6,436.8,223.8,436.9,224C436.9,224,436.9,224,436.9,224z"/>
	<path class="st0" d="M433.4,224.9c0,0.1-0.1,0.2-0.1,0.2c0,0,0,0,0,0c-0.1,0-0.2-0.1-0.1-0.2c0-0.1,0.1-0.1,0.1-0.1
		C433.3,224.8,433.4,224.8,433.4,224.9z"/>
	<path class="st0" d="M444,238.3c0,0.1-0.1,0.2-0.2,0.2c0,0,0,0,0,0c-0.1,0-0.2-0.1-0.3-0.2c0,0,0,0,0,0c0-0.1,0.1-0.2,0.2-0.2
		c0,0,0,0,0,0C443.9,238.1,444,238.2,444,238.3C444,238.3,444,238.3,444,238.3z"/>
	<path class="st0" d="M438.8,239.5c0,0.2-0.1,0.3-0.3,0.3c0,0,0,0,0,0c-0.2,0-0.3-0.1-0.3-0.3c0-0.2,0.1-0.3,0.3-0.3
		C438.6,239.2,438.7,239.3,438.8,239.5C438.8,239.5,438.8,239.5,438.8,239.5z"/>
	<path class="st0" d="M444.5,227.4c0,0.1-0.2,0.2-0.3,0.2c-0.1,0-0.2-0.1-0.2-0.2c0-0.1,0.1-0.3,0.2-0.3
		C444.4,227.1,444.5,227.2,444.5,227.4C444.5,227.3,444.5,227.4,444.5,227.4z"/>
	<path class="st0" d="M442.7,223.4c0,0.2-0.1,0.3-0.3,0.3c0,0,0,0,0,0c-0.2,0-0.3-0.1-0.3-0.3c0-0.2,0.1-0.3,0.3-0.3l0,0
		C442.5,223.1,442.7,223.2,442.7,223.4C442.7,223.4,442.7,223.4,442.7,223.4z"/>
</g>
<g id="freepik--Sun--inject-13">
	<path class="st8" d="M417.3,199.4c-0.2-2.2,2.8-5,2.2-7.1s-4.5-3.1-5.4-5.1s1.1-5.6-0.1-7.4s-5.2-1.5-6.7-3.2s-0.7-5.6-2.4-7
		s-5.5,0.2-7.4-0.9s-2.4-5.1-4.4-5.9s-5.1,1.8-7.3,1.4s-3.8-4.1-6-4.3s-4.3,3.3-6.5,3.6s-5-2.8-7.1-2.2s-3.1,4.5-5.1,5.4
		s-5.6-1.1-7.4,0.1s-1.5,5.2-3.2,6.7s-5.6,0.7-7,2.4s0.2,5.4-0.9,7.3s-5.1,2.4-5.9,4.4s1.8,5.1,1.4,7.3s-4.1,3.8-4.3,6
		s3.3,4.3,3.6,6.5s-2.8,5-2.2,7.1s4.5,3.1,5.4,5.1s-1.1,5.6,0.1,7.4s5.2,1.5,6.7,3.1s0.7,5.6,2.4,7s5.5-0.2,7.3,0.9s2.4,5.1,4.4,5.9
		s5.1-1.8,7.3-1.4s3.8,4.1,6,4.3s4.3-3.3,6.5-3.6s5,2.8,7.1,2.2s3.1-4.5,5.1-5.4s5.6,1.1,7.4-0.1s1.5-5.2,3.2-6.7s5.6-0.7,7-2.4
		s-0.2-5.4,1-7.3s5.1-2.4,5.9-4.4s-1.9-5.1-1.4-7.3s4.1-3.8,4.3-6S417.5,201.6,417.3,199.4z"/>
	<circle class="st16" cx="377.3" cy="203.3" r="37.2"/>
	
		<ellipse transform="matrix(2.967001e-03 -1 1 2.967001e-03 172.835 580.0787)" class="st17" cx="377.3" cy="203.4" rx="25.7" ry="25.7"/>
	
		<ellipse transform="matrix(0.1205 -0.9927 0.9927 0.1205 129.9795 553.4516)" class="st18" cx="377.3" cy="203.4" rx="15.1" ry="15.1"/>
	<path class="st19" d="M399.9,182.3c0,0-8.2-8.9-13.8-8s-0.5,4.6,1.9,6.8s1.3,6.5-1,4.9s-3.5-7.5-5.3-1.9s-1.1,7.4,1.4,7.4
		s3.8-1.3,5.3-1.7s4,0.2,3.4,3.6s0.4,3.9-1.7,4.4s-4.3-0.5-4.7,2c-0.4,2.3,1.2,4.5,3.5,4.9c0.2,0,0.4,0.1,0.7,0.1
		c3.1,0.3,5.2,1,5.5-3s4.2-9.8,5.8-5.7s4.9,6.8,5.7,2.5s4.1-7.1-2.2-9.5S402.1,185.8,399.9,182.3z"/>
	<path class="st19" d="M376.7,207.7c0,0-0.5,1.6-2.9,1.8s-2.4-3.1-5.8-6.1s-7.5-2.3-6.2,1.5s3.9,5.4,1.9,7.1s-4.9-3.8-7.1-1.7
		s-2.9,4.8-0.3,5.8s6.5,1.5,6.8,4.2s-1.2,3.5,2,5.3s7.8,1.9,8.2-2.4s3.6-6.4,8-5s7.6-2.6,5.2-6S380.6,204.3,376.7,207.7z"/>
	<path class="st19" d="M370.7,190.4c0,0,0.9-3.1-3-2.4s-6.1,2.4-6.2,4.6s0.4,3.9,1.6,4.1s3.2-1.2,4.8-0.2c1.4,0.8,2.4,2.1,2.8,3.7
		c0.1,1.2-2.9,2.4,1.8,2.9s6-0.3,6.9-3.4s1.3-5.3-1.3-7.1S373.9,188.3,370.7,190.4z"/>
	<path class="st19" d="M398.9,210.9c-0.4,1.8-1.6,3.3-3.2,4.3c-2.9,1.8-4.1,1.3-5.2,5.1s-6.9,1.3-10.7,2.6s-3.2,7.3,0.5,8.4
		s10.7,0.4,14-2s1.1-6.8,4.7-7.8s9.5-1.9,9.2-7.6S402.1,206.7,398.9,210.9z"/>
	<path class="st19" d="M354.9,204.7c0,0,0.7-5.5-4.9-6.8s-7.5,3.5-5.7,10s8.4,8.6,7.3,3.5S355.5,208,354.9,204.7z"/>
	<path class="st19" d="M354.4,181.4c0,0-4.8,3.5-5.2,8.1s3.6,8.7,6.1,6.4s1.2-6.5,5.5-8.1s8.1-4.1,4.8-7.1S357.6,177.8,354.4,181.4z
		"/>
	<path class="st19" d="M362.4,228.2c0,0-2.4-0.1-5.2-3.4s-7.1-4.4-5.7,0.3s6.6,8.4,11.2,9.2s10.2-1.3,6.9-4S364.2,227.8,362.4,228.2
		z"/>
	<path class="st19" d="M375.7,170.2c0,0-7.2,0.7-8.1,3.6s6.1,3,4.8,5.3s-7.2,3.4-4,5.9s11,3.4,10.3,0.2s-3-6.1-0.8-7.5
		s0.9-3.1,3.1-5.5S379.3,169.6,375.7,170.2z"/>
</g>
</svg>
